<svg width="20" height="20" viewBox="0 0 20 20" fill="none" xmlns="http://www.w3.org/2000/svg">
<path d="M11.0605 6.11073L12.4747 7.52494C15.2084 10.2586 15.2084 14.6908 12.4747 17.4244L12.1211 17.778C9.3875 20.5117 4.95531 20.5117 2.22164 17.778C-0.512031 15.0443 -0.512031 10.6122 2.22164 7.87849L3.63585 9.2927C1.68323 11.2453 1.68323 14.4112 3.63585 16.3638C5.58847 18.3164 8.7543 18.3164 10.7069 16.3638L11.0605 16.0102C13.0131 14.0576 13.0131 10.8918 11.0605 8.9392L9.6463 7.52494L11.0605 6.11073ZM17.778 12.1211L16.3638 10.7069C18.3164 8.7543 18.3164 5.58847 16.3638 3.63585C14.4112 1.68323 11.2453 1.68323 9.2927 3.63585L8.9392 3.98941C6.98653 5.94203 6.98653 9.1079 8.9392 11.0605L10.3534 12.4747L8.9392 13.8889L7.52494 12.4747C4.79127 9.741 4.79127 5.30886 7.52494 2.57519L7.87849 2.22164C10.6122 -0.512031 15.0443 -0.512031 17.778 2.22164C20.5117 4.95531 20.5117 9.3875 17.778 12.1211Z" fill="white"/>
</svg>
